<svg xmlns="http://www.w3.org/2000/svg" version="1.1" xmlns:xlink="http://www.w3.org/1999/xlink" xmlns:svgjs="http://svgjs.dev/svgjs" width="1000" height="1000" viewBox="0 0 1000 1000"><rect width="1000" height="1000" fill="#000000"></rect><g transform="matrix(0.7,0,0,0.7,149.57576038834412,399.4143783276055)"><svg viewBox="0 0 396 114" data-background-color="#ffffff" preserveAspectRatio="xMidYMid meet" height="287" width="1000" xmlns="http://www.w3.org/2000/svg" xmlns:xlink="http://www.w3.org/1999/xlink"><g id="tight-bounds" transform="matrix(1,0,0,1,0.23999840887961454,0.0769580420755176)"><svg viewBox="0 0 395.52 113.84608391584895" height="113.84608391584895" width="395.52"><g><svg viewBox="0 0 664.694946674854 191.32513318564466" height="113.84608391584895" width="395.52"><g><rect width="12.484730794659104" height="166.12891448825872" x="224.0076745329198" y="12.598109348692972" fill="#ffffff" opacity="1" stroke-width="0" stroke="transparent" fill-opacity="1" class="rect-o-0" data-fill-palette-color="primary" rx="1%" id="o-0" data-palette-color="#000000"></rect></g><g transform="matrix(1,0,0,1,269.174946674854,26.44218555604786)"><svg viewBox="0 0 395.52 138.44076207354894" height="138.44076207354894" width="395.52"><g><svg viewBox="0 0 395.52 138.44076207354894" height="138.44076207354894" width="395.52"><g><svg viewBox="0 0 395.52 138.44076207354894" height="138.44076207354894" width="395.52"><g transform="matrix(1,0,0,1,0,0)"><svg width="395.52" viewBox="1.75 -39 112.8499984741211 39.5" height="138.44076207354894" data-palette-color="#000000"><path d="M22.6 0L1.75 0 1.75-2Q3.4-2.05 4.42-2.27 5.45-2.5 6.03-3.13 6.6-3.75 6.8-4.83 7-5.9 7-7.7L7-7.7 7-30.8Q7-32.55 6.85-33.63 6.7-34.7 6.2-35.33 5.7-35.95 4.83-36.18 3.95-36.4 2.55-36.5L2.55-36.5 2.55-38.5 21.55-38.5Q26.35-38.5 30.4-37 34.45-35.5 37.4-32.85 40.35-30.2 42-26.55 43.65-22.9 43.65-18.6L43.65-18.6Q43.65-14.5 42.1-11.08 40.55-7.65 37.77-5.2 35-2.75 31.13-1.38 27.25 0 22.6 0L22.6 0ZM21.45-35.45L15.2-35.45Q14.35-35.45 14.35-34.6L14.35-34.6 14.35-8.75Q14.35-5.85 16.15-4.45 17.95-3.05 21.7-3.05L21.7-3.05Q28.25-3.05 31.78-7 35.3-10.95 35.3-18.5L35.3-18.5Q35.3-22.5 34.35-25.65 33.4-28.8 31.6-30.98 29.8-33.15 27.23-34.3 24.65-35.45 21.45-35.45L21.45-35.45ZM58.1-30.5L66.1-8.6 72.6-25.25Q73.55-27.7 74.12-29.25 74.7-30.8 75-31.8 75.3-32.8 75.4-33.4 75.5-34 75.5-34.55L75.5-34.55Q75.5-35.75 74.6-36.13 73.7-36.5 71-36.5L71-36.5 71-38.5 85.2-38.5 85.2-36.5Q81.05-36.5 79.45-32.45L79.45-32.45 66.3 0.5 62.6 0.5 50.65-28.7Q49.65-31.05 48.85-32.55 48.05-34.05 47.15-34.93 46.25-35.8 45.17-36.13 44.1-36.45 42.65-36.45L42.65-36.45 42.65-38.5 61.55-38.5 61.55-36.45Q60.25-36.4 59.37-36.3 58.5-36.2 58-35.98 57.5-35.75 57.3-35.38 57.1-35 57.1-34.45L57.1-34.45Q57.1-33.75 57.35-32.8 57.6-31.85 58.1-30.5L58.1-30.5ZM87.15 0L86.4-12.75 88.35-12.75Q89.05-8 92.15-5.28 95.25-2.55 99.8-2.55L99.8-2.55Q101.65-2.55 103.2-3 104.75-3.45 105.85-4.28 106.95-5.1 107.55-6.23 108.15-7.35 108.15-8.75L108.15-8.75Q108.15-9.95 107.77-10.83 107.4-11.7 106.35-12.53 105.3-13.35 103.47-14.2 101.65-15.05 98.75-16.15L98.75-16.15Q92.9-18.4 90.1-21.38 87.3-24.35 87.3-28.4L87.3-28.4Q87.3-30.75 88.2-32.7 89.1-34.65 90.72-36.05 92.35-37.45 94.62-38.23 96.9-39 99.65-39L99.65-39Q102.2-39 104.45-38.2 106.7-37.4 108.9-35.8L108.9-35.8 109.8-38.3 111-38.3 111.55-27.5 109.6-27.5Q108.4-31.6 105.85-33.77 103.3-35.95 99.95-35.95L99.95-35.95Q96.85-35.95 94.92-34.43 93-32.9 93-30.5L93-30.5Q93-29.45 93.35-28.63 93.7-27.8 94.65-27.05 95.6-26.3 97.25-25.53 98.9-24.75 101.5-23.8L101.5-23.8Q105-22.45 107.47-21.08 109.95-19.7 111.52-18.13 113.1-16.55 113.85-14.8 114.6-13.05 114.6-10.95L114.6-10.95Q114.6-8.4 113.5-6.3 112.4-4.2 110.42-2.7 108.45-1.2 105.72-0.35 103 0.5 99.7 0.5L99.7 0.5Q96.7 0.5 94.3-0.33 91.9-1.15 89.35-3L89.35-3 88.35 0 87.15 0Z" opacity="1" transform="matrix(1,0,0,1,0,0)" fill="#ffffff" class="undefined-text-0" data-fill-palette-color="primary" id="text-0"></path></svg></g></svg></g></svg></g></svg></g><g><svg viewBox="0 0 191.32513318564466 191.32513318564466" height="191.32513318564466" width="191.32513318564466"><g><svg xmlns="http://www.w3.org/2000/svg" xmlns:xlink="http://www.w3.org/1999/xlink" version="1.1" x="0" y="0" viewBox="0 0 16 16" style="enable-background:new 0 0 16 16;" xml:space="preserve" height="191.32513318564466" width="191.32513318564466" class="icon-icon-0" data-fill-palette-color="accent" id="icon-0"><g fill="#d2d6dc" data-fill-palette-color="accent"><g fill="#d2d6dc" data-fill-palette-color="accent"><path d="M16 6h-1.294C14.034 3.743 12.257 1.966 10 1.294V0H6v1.294C3.743 1.966 1.966 3.743 1.294 6H0v4h1.294c0.672 2.257 2.45 4.034 4.706 4.706V16h4v-1.294c2.257-0.672 4.034-2.45 4.706-4.706H16V6zM10 12.576V12H6v0.576C4.851 12.072 3.928 11.149 3.424 10H4V6H3.424C3.928 4.851 4.851 3.928 6 3.424V4h4V3.424C11.149 3.928 12.072 4.851 12.576 6H12v4h0.576C12.072 11.149 11.149 12.072 10 12.576z" fill="#ffffff" data-fill-palette-color="accent"></path></g></g></svg></g></svg></g></svg></g><defs></defs></svg><rect width="395.52" height="113.84608391584895" fill="none" stroke="none" visibility="hidden"></rect></g></svg></g></svg>