<svg xmlns="http://www.w3.org/2000/svg" version="1.1" xmlns:xlink="http://www.w3.org/1999/xlink" xmlns:svgjs="http://svgjs.dev/svgjs" width="1000" height="368" viewBox="0 0 1000 368"><g transform="matrix(1,0,0,1,-0.6060602469808032,-0.5212252786020031)"><svg viewBox="0 0 396 146" data-background-color="#282634" preserveAspectRatio="xMidYMid meet" height="368" width="1000" xmlns="http://www.w3.org/2000/svg" xmlns:xlink="http://www.w3.org/1999/xlink"><g id="tight-bounds" transform="matrix(1,0,0,1,0.24000014219552668,0.20679046379318322)"><svg viewBox="0 0 395.52 145.58641907241363" height="145.58641907241363" width="395.52"><g><svg viewBox="0 0 734.3087979222109 270.29072710068596" height="145.58641907241363" width="395.52"><g><rect width="15.132049238574547" height="270.29072710068596" x="284.0440543418182" y="0" fill="#ff4057" opacity="1" stroke-width="0" stroke="transparent" fill-opacity="1" class="rect-o-0" data-fill-palette-color="primary" rx="1%" id="o-0" data-palette-color="#ff4057"></rect></g><g transform="matrix(1,0,0,1,338.78879792221096,0.6723649927877489)"><svg viewBox="0 0 395.52 268.94599711511046" height="268.94599711511046" width="395.52"><g><svg viewBox="0 0 395.52 268.94599711511046" height="268.94599711511046" width="395.52"><g><svg viewBox="0 0 395.52 181.62573426573428" height="181.62573426573428" width="395.52"><g transform="matrix(1,0,0,1,0,0)"><svg width="395.52" viewBox="2.6000003814697266 -35.54999923706055 85.80000305175781 36.39999771118164" height="181.62573426573428" data-palette-color="#ff4057"><svg></svg><g class="undefined-text-0" data-fill-palette-color="primary" id="text-0"><path xmlns="http://www.w3.org/2000/svg" d="M28.7-17.5c0 11.667-5.583 17.5-16.75 17.5v0h-9.35v-34.65h8.75c5.233 0 9.433 1.223 12.6 3.67 3.167 2.453 4.75 6.947 4.75 13.48zM20.25-17.5c0-4.3-0.667-7.243-2-8.83-1.333-1.58-3.233-2.37-5.7-2.37v0h-1.75v22.75h1.75c2.5 0 4.41-0.86 5.73-2.58 1.313-1.713 1.97-4.703 1.97-8.97zM45.15-6.4l6.5-28.25h8.4l-10 34.65h-10.1l-9.95-34.65h8.7zM88.4-10.15c0 2.167-0.567 4.083-1.7 5.75-1.133 1.667-2.757 2.957-4.87 3.87-2.12 0.92-4.63 1.38-7.53 1.38v0c-5.733 0-10.3-1.667-13.7-5v0l4.15-4.6c2.633 2.333 5.75 3.5 9.35 3.5v0c1.733 0 3.127-0.377 4.18-1.13 1.047-0.747 1.57-1.787 1.57-3.12v0c0-1.267-0.44-2.26-1.32-2.98-0.887-0.713-2.53-1.437-4.93-2.17v0c-4.067-1.233-6.95-2.683-8.65-4.35-1.7-1.667-2.55-3.817-2.55-6.45v0c0-2.067 0.577-3.867 1.73-5.4 1.147-1.533 2.713-2.7 4.7-3.5 1.98-0.8 4.187-1.2 6.62-1.2v0c5.1 0 9.233 1.5 12.4 4.5v0l-3.85 4.45c-1.167-0.967-2.427-1.693-3.78-2.18-1.347-0.48-2.737-0.72-4.17-0.72v0c-1.6 0-2.857 0.29-3.77 0.87-0.92 0.587-1.38 1.43-1.38 2.53v0c0 0.733 0.21 1.35 0.63 1.85 0.413 0.5 1.103 0.967 2.07 1.4 0.967 0.433 2.417 0.95 4.35 1.55v0c3.533 1.067 6.16 2.44 7.88 4.12 1.713 1.687 2.57 4.03 2.57 7.03z" fill="#ff4057" fill-rule="nonzero" stroke="none" stroke-width="1" stroke-linecap="butt" stroke-linejoin="miter" stroke-miterlimit="10" stroke-dasharray="" stroke-dashoffset="0" font-family="none" font-weight="none" font-size="none" text-anchor="none" style="mix-blend-mode: normal" data-fill-palette-color="primary" opacity="1"></path></g></svg></g></svg></g><g transform="matrix(1,0,0,1,0,221.23842860755246)"><svg viewBox="0 0 232.209792 47.707568507558015" height="47.707568507558015" width="232.209792"><g transform="matrix(1,0,0,1,0,0)"><svg width="232.209792" viewBox="2.8499999046325684 -36.45000076293945 234.82998657226562 48.25" height="47.707568507558015" data-palette-color="#dcdcdc"><path d="M13.75 0.65Q8.3 0.65 5.58-1.48 2.85-3.6 2.85-6.9L2.85-6.9Q2.85-8.2 3.38-8.88 3.9-9.55 5.2-9.55L5.2-9.55 5.8-9.5Q5.6-8.7 5.6-7.55L5.6-7.55Q5.7-4.45 7.95-2.75 10.2-1.05 13.95-1.05L13.95-1.05Q17.6-1.05 19.75-2.7 21.9-4.35 21.9-7.5L21.9-7.5Q21.9-9.5 20.98-11 20.05-12.5 18.32-13.75 16.6-15 13.45-16.7L13.45-16.7Q10.1-18.55 8.22-19.9 6.35-21.25 5.23-23.03 4.1-24.8 4.1-27.25L4.1-27.25Q4.1-31.2 6.95-33.18 9.8-35.15 14.25-35.15L14.25-35.15Q18.6-35.15 21.25-33.45 23.9-31.75 23.9-28.85L23.9-28.85Q23.9-28 23.58-27.53 23.25-27.05 22.45-26.85L22.45-26.85Q22.05-26.75 21.8-26.75L21.8-26.75Q21.65-26.75 21.05-26.85L21.05-26.85Q21.2-27.4 21.2-27.9L21.2-27.9Q21.2-28.35 21.15-28.6L21.15-28.6Q21.05-30.95 19.05-32.23 17.05-33.5 13.95-33.5L13.95-33.5Q11-33.5 9-32.23 7-30.95 7-28.1L7-28.1Q7-26.05 8.05-24.58 9.1-23.1 10.68-22.05 12.25-21 15.15-19.4L15.15-19.4Q18.4-17.65 20.45-16.13 22.5-14.6 23.7-12.65 24.9-10.7 24.9-8.15L24.9-8.15Q24.9-4.5 22.28-1.93 19.65 0.65 13.75 0.65L13.75 0.65ZM33.7-30.4Q32.75-30.4 32.07-31.08 31.4-31.75 31.4-32.7L31.4-32.7Q31.4-33.65 32.07-34.33 32.75-35 33.7-35L33.7-35Q34.65-35 35.32-34.33 36-33.65 36-32.7L36-32.7Q36-31.75 35.32-31.08 34.65-30.4 33.7-30.4L33.7-30.4ZM35.4-5.15Q35.4-1.7 35.9-0.2L35.9-0.2Q35.1 0.5 34.15 0.5L34.15 0.5Q33.4 0.5 32.95 0.03 32.5-0.45 32.5-1.25L32.5-1.25 32.45-20.25Q32.45-23.5 31.95-25.15L31.95-25.15Q32.65-25.85 33.65-25.85L33.65-25.85Q34.4-25.85 34.85-25.4 35.3-24.95 35.3-24.1L35.3-24.1 35.4-5.15ZM50.95 11.8Q47.45 11.8 45.12 10.23 42.8 8.65 42.8 5.7L42.8 5.7Q42.8 4.15 43.55 3.18 44.3 2.2 45.4 2.2L45.4 2.2Q46.45 2.2 46.95 2.85L46.95 2.85Q45.6 3.75 45.6 5.7L45.6 5.7Q45.6 7.95 47.12 9.08 48.65 10.2 51.05 10.2L51.05 10.2Q55.75 10.2 57.92 7.03 60.1 3.85 60.1-2.6L60.1-2.6 60.1-5.9Q59.15-2.95 56.9-1.3 54.65 0.35 51.45 0.35L51.45 0.35Q42.65 0.35 42.65-12.4L42.65-12.4Q42.65-17.9 45.02-21.88 47.4-25.85 53.75-25.85L53.75-25.85Q56.4-25.85 58.92-25.13 61.45-24.4 63.05-22.55L63.05-22.55 63.05-2.25Q63.05 11.8 50.95 11.8L50.95 11.8ZM52.1-1.55Q56.25-1.55 58.15-4.85 60.05-8.15 60.1-12.4L60.1-12.4 60.15-22.05Q59.25-23.1 57.47-23.65 55.7-24.2 53.5-24.2L53.5-24.2Q49-24.2 47.4-20.73 45.8-17.25 45.8-12.1L45.8-12.1Q45.8-6.6 47.35-4.08 48.9-1.55 52.1-1.55L52.1-1.55ZM91.24-5.15Q91.34-1.55 91.79-0.2L91.79-0.2Q90.99 0.5 90.04 0.5L90.04 0.5Q89.29 0.5 88.79 0.03 88.29-0.45 88.29-1.25L88.29-1.25 88.29-15.05Q88.24-19.55 86.89-21.73 85.54-23.9 82.44-23.9L82.44-23.9Q80.59-23.9 78.82-22.75 77.04-21.6 75.87-18.98 74.69-16.35 74.69-12.2L74.69-12.2Q74.69-5.3 74.77-3.33 74.84-1.35 75.24-0.2L75.24-0.2Q74.54 0.5 73.54 0.5L73.54 0.5Q72.74 0.5 72.27 0 71.79-0.5 71.79-1.35L71.79-1.35 71.79-20.85Q71.74-22.25 71.42-22.83 71.09-23.4 70.34-23.4L70.34-23.4Q69.39-23.4 68.99-22.55L68.99-22.55Q68.44-23.35 68.44-23.95L68.44-23.95Q68.44-24.8 69.14-25.3 69.84-25.8 71.04-25.8L71.04-25.8Q74.49-25.8 74.49-21.15L74.49-21.15 74.49-19.55Q75.59-22.55 77.89-24.2 80.19-25.85 83.19-25.85L83.19-25.85Q91.24-25.85 91.24-15.3L91.24-15.3 91.24-5.15ZM130.89-34.55Q131.49-34.55 131.49-33.7L131.49-33.7Q131.49-33.15 131.24-32.63 130.99-32.1 130.59-31.95L130.59-31.95 128.49-32.2Q123.64-32.8 120.94-32.9L120.94-32.9 120.99-5.15Q120.99-1.7 121.49-0.2L121.49-0.2Q120.69 0.5 119.74 0.5L119.74 0.5Q118.94 0.5 118.49 0.03 118.04-0.45 118.04-1.25L118.04-1.25 117.94-32.9Q115.19-32.8 110.34-32.2L110.34-32.2 108.34-31.95Q107.94-32.1 107.69-32.65 107.44-33.2 107.44-33.75L107.44-33.75Q107.44-34.55 107.99-34.55L107.99-34.55 130.89-34.55ZM145.94 0.65Q140.64 0.65 137.71-2.85 134.79-6.35 134.79-12.6L134.79-12.6Q134.79-18.85 137.71-22.35 140.64-25.85 145.94-25.85L145.94-25.85Q151.19-25.85 154.14-22.35 157.09-18.85 157.09-12.6L157.09-12.6Q157.09-6.35 154.14-2.85 151.19 0.65 145.94 0.65L145.94 0.65ZM145.94-1Q149.74-1 151.81-4.03 153.89-7.05 153.89-12.6L153.89-12.6Q153.89-18.15 151.81-21.18 149.74-24.2 145.94-24.2L145.94-24.2Q142.09-24.2 140.01-21.18 137.94-18.15 137.94-12.6L137.94-12.6Q137.94-7.05 140.01-4.03 142.09-1 145.94-1L145.94-1ZM185.28-2.85Q185.78-2.15 185.78-1.45L185.78-1.45Q185.78-0.65 185.03-0.13 184.28 0.4 183.13 0.4L183.13 0.4Q179.58 0.4 179.58-5L179.58-5 179.58-6.6Q178.33-3.25 176.03-1.3 173.73 0.65 170.33 0.65L170.33 0.65Q165.48 0.65 163.68-2.93 161.88-6.5 161.88-11.35L161.88-11.35Q161.88-18.2 164.58-22.03 167.28-25.85 172.28-25.85L172.28-25.85Q174.98-25.85 176.83-24.73 178.68-23.6 179.48-21.5L179.48-21.5 179.43-29.85Q179.43-34.05 178.93-35.75L178.93-35.75Q179.63-36.45 180.68-36.45L180.68-36.45Q181.48-36.45 181.96-36 182.43-35.55 182.43-34.7L182.43-34.7 182.38-4.55Q182.38-2 183.93-2L183.93-2Q184.88-2 185.28-2.85L185.28-2.85ZM170.98-1.4Q173.53-1.4 175.46-3.18 177.38-4.95 178.41-8 179.43-11.05 179.43-14.8L179.43-14.8Q179.43-18.65 177.91-21.28 176.38-23.9 172.53-23.9L172.53-23.9Q168.98-23.9 167.01-20.75 165.03-17.6 165.03-11.45L165.03-11.45Q165.03-7.15 166.23-4.28 167.43-1.4 170.98-1.4L170.98-1.4ZM213.43-3.05Q213.93-2.5 213.93-1.7L213.93-1.7Q213.93-0.75 213.03-0.13 212.13 0.5 210.88 0.5L210.88 0.5Q206.98 0.5 206.98-4.85L206.98-4.85 206.98-7.6Q205.28-3.8 202.31-1.63 199.33 0.55 195.88 0.55L195.88 0.55Q192.98 0.55 191.38-1.03 189.78-2.6 189.78-5.2L189.78-5.2Q189.78-8.05 191.91-10.1 194.03-12.15 197.88-13.2L197.88-13.2Q201.18-14.05 204.68-14.05L204.68-14.05Q205.43-14.05 206.83-13.95L206.83-13.95 206.83-15.25Q206.83-19.8 205.13-22.03 203.43-24.25 199.68-24.25L199.68-24.25Q197.28-24.25 195.56-23.28 193.83-22.3 193.83-20.05L193.83-20.05Q193.83-18.95 194.43-17.93 195.03-16.9 196.13-16.55L196.13-16.55Q195.48-15.65 194.18-15.65L194.18-15.65Q192.73-15.65 191.81-16.95 190.88-18.25 190.88-19.9L190.88-19.9Q190.88-22.85 193.31-24.35 195.73-25.85 200.03-25.85L200.03-25.85Q205.03-25.85 207.43-23.2 209.83-20.55 209.83-15.1L209.83-15.1 209.83-4.55Q209.83-1.9 211.68-1.9L211.68-1.9Q212.13-1.9 212.63-2.2 213.13-2.5 213.43-3.05L213.43-3.05ZM196.98-1.6Q199.18-1.6 201.48-3.2 203.78-4.8 205.31-7.35 206.83-9.9 206.88-12.6L206.88-12.6 205.68-12.65Q203.78-12.65 201.76-12.38 199.73-12.1 198.38-11.6L198.38-11.6Q195.78-10.75 194.38-9.25 192.98-7.75 192.98-5.7L192.98-5.7Q192.98-3.95 193.96-2.78 194.93-1.6 196.98-1.6L196.98-1.6ZM237.63-24L237.68-2.4Q237.68 11.8 226.38 11.8L226.38 11.8Q222.98 11.8 220.6 10.48 218.23 9.15 218.23 6.35L218.23 6.35Q218.23 5.05 218.88 4.13 219.53 3.2 220.63 3.2L220.63 3.2Q221.68 3.2 222.13 3.85L222.13 3.85Q221.48 4.2 221.23 4.85 220.98 5.5 220.98 6.1L220.98 6.1Q220.98 8.25 222.58 9.22 224.18 10.2 226.33 10.2L226.33 10.2Q230.73 10.2 232.78 7.05 234.83 3.9 234.83-2.7L234.83-2.7Q234.83-3.75 234.93-6.15L234.93-6.15Q233.88-3.05 231.6-1.3 229.33 0.45 226.08 0.45L226.08 0.45Q222.33 0.45 220.5-2.02 218.68-4.5 218.63-10.2L218.63-10.2 218.63-20.2Q218.63-23.45 218.13-25.15L218.13-25.15Q218.93-25.85 219.83-25.85L219.83-25.85Q220.58-25.85 221.05-25.38 221.53-24.9 221.53-24.1L221.53-24.1 221.58-10.45Q221.58-5.65 222.78-3.55 223.98-1.45 226.73-1.45L226.73-1.45Q230.08-1.45 232.4-4.35 234.73-7.25 234.73-13.55L234.73-13.55Q234.73-20.25 234.65-22.15 234.58-24.05 234.23-25.15L234.23-25.15Q234.93-25.85 235.93-25.85L235.93-25.85Q236.68-25.85 237.15-25.35 237.63-24.85 237.63-24L237.63-24Z" opacity="1" transform="matrix(1,0,0,1,0,0)" fill="#dcdcdc" class="undefined-text-1" data-fill-palette-color="secondary" id="text-1"></path></svg></g></svg></g></svg></g></svg></g><g transform="matrix(1,0,0,1,0,10.576703271048373)"><svg viewBox="0 0 244.43135999999998 249.1373205585892" height="249.1373205585892" width="244.43135999999998"><g><svg xmlns="http://www.w3.org/2000/svg" xmlns:xlink="http://www.w3.org/1999/xlink" version="1.1" x="0" y="0" viewBox="5.800000190734863 5 88.29999542236328 90.00000762939453" enable-background="new 0 0 100 100" xml:space="preserve" height="249.1373205585892" width="244.43135999999998" class="icon-icon-0" data-fill-palette-color="accent" id="icon-0"><path d="M91.3 18.7L48.5 5.4 47.1 5l-1.3 0.5-37.2 15-2.5 1 0 2.7L5.8 77.4l0 3 2.8 0.9 42.9 13.3 1.4 0.4 1.3-0.5 37.2-15 2.5-1 0-2.7 0.2-53.1 0-3L91.3 18.7zM53.4 37.9l2-0.8-2 2L53.4 37.9zM53.4 42l6.8-6.8 2-0.8-8.7 8.7L53.4 42zM53.4 46l13.5-13.5 2-0.8L53.4 47.2 53.4 46zM53.4 50.1l20.3-20.3 2-0.8L53.4 51.2 53.4 50.1zM53.4 54.1L80.4 27l2-0.8-29 29L53.4 54.1zM53.3 58.1l33.8-33.8 2-0.8L53.3 59.3 53.3 58.1zM53.2 86.4l36.3-36.3 0 1.2L53.2 87.6 53.2 86.4zM53.3 83.5l0-1.2 36.3-36.3 0 1.2L53.3 83.5zM53.3 79.5l0-1.2L89.6 42l0 1.2L53.3 79.5zM53.3 75.5l0-1.2L89.6 38l0 1.2L53.3 75.5zM53.3 71.4l0-1.2 36.3-36.3 0 1.2L53.3 71.4zM53.3 67.4l0-1.2 36.3-36.3 0 1.2L53.3 67.4zM53.3 63.4l0-1.2 36.3-36.3 0 1.2L53.3 63.4zM13 24.2l34.3-13.9 39.8 12.4L52.9 36.5 13 24.2zM54 89.7l35.6-35.6 0 1.2L56 88.9 54 89.7zM83 78l-2 0.8 8.5-8.5 0 1.2L83 78zM89.5 74.3l0 1L87.7 76 89.5 74.3zM76.2 80.7l-2 0.8 15.3-15.3 0 1.2L76.2 80.7zM69.5 83.4l-2 0.8 22-22 0 1.2L69.5 83.4zM62.7 86.2l-2 0.8 28.8-28.8 0 1.2L62.7 86.2z" fill="#dcdcdc" data-fill-palette-color="accent"></path></svg></g></svg></g></svg></g><defs></defs></svg><rect width="395.52" height="145.58641907241363" fill="none" stroke="none" visibility="hidden"></rect></g></svg></g></svg>